<svg width="28" height="19" viewBox="0 0 28 19" fill="none" xmlns="http://www.w3.org/2000/svg">
<path d="M24.4899 8.06299V4.44288H22.793V8.06299H19.3991V9.87305H22.793V13.4932H24.4899V9.87305H27.8838V8.06299H24.4899ZM9.21756 8.06299V11.6831H14.0178C13.6657 12.7411 13.0153 13.657 12.1559 14.3051C11.2965 14.9532 10.2701 15.3019 9.21756 15.3032C7.86795 15.3013 6.57413 14.7286 5.61981 13.7107C4.66549 12.6927 4.12857 11.3126 4.12677 9.87305C4.12857 8.43347 4.66549 7.05339 5.61981 6.03545C6.57413 5.01751 7.86795 4.44479 9.21756 4.44288C10.4339 4.44288 11.6055 4.9077 12.515 5.75336L14.7428 3.02379C13.2106 1.60261 11.248 0.820801 9.21756 0.822758C6.96807 0.82544 4.81142 1.77981 3.22079 3.47649C1.63015 5.17317 0.735425 7.47359 0.73291 9.87305C0.735425 12.2725 1.63015 14.5729 3.22079 16.2696C4.81142 17.9663 6.96807 18.9207 9.21756 18.9233C11.4671 18.9207 13.6237 17.9663 15.2143 16.2696C16.805 14.5729 17.6997 12.2725 17.7022 9.87305V8.06299H9.21756Z" fill="white"/>
</svg>
