<svg width="17" height="21" viewBox="0 0 17 21" fill="none" xmlns="http://www.w3.org/2000/svg">
<path d="M7.31018 13.6041C6.78144 16.4357 6.13776 19.151 4.22761 20.5689C3.6393 16.2892 5.09386 13.0743 5.76889 9.66207C4.61737 7.67807 5.90787 3.68411 8.33631 4.66779C11.3248 5.87897 5.748 12.0449 9.49202 12.8157C13.4011 13.6197 14.9978 5.87377 12.5736 3.35379C9.07091 -0.282851 2.37806 3.27172 3.20147 8.47894C3.4021 9.75244 4.68634 10.1388 3.71454 11.8964C1.47314 11.3864 0.804379 9.57689 0.891109 7.16389C1.02904 3.21667 4.35718 0.45154 7.69472 0.0692829C11.9163 -0.414771 15.8777 1.65544 16.4242 5.72004C17.0407 10.3071 14.5192 15.2765 10.0061 14.9181C8.78251 14.8215 8.26839 14.2014 7.31018 13.6041Z" fill="white"/>
</svg>
