<svg width="25" height="21" viewBox="0 0 25 21" fill="none" xmlns="http://www.w3.org/2000/svg">
<path d="M24.7329 3.158C23.8386 3.56203 22.8915 3.82694 21.9222 3.94414C22.9396 3.32613 23.7046 2.34608 24.0744 1.1871C23.1105 1.76754 22.0591 2.17638 20.9643 2.39655C20.5032 1.89698 19.9486 1.49981 19.3343 1.22928C18.72 0.958748 18.0589 0.820521 17.3912 0.823032C14.6879 0.823032 12.4964 3.0568 12.4964 5.80891C12.4964 6.19889 12.5393 6.58024 12.6228 6.94431C10.6837 6.8489 8.78512 6.33639 7.04818 5.43946C5.31125 4.54254 3.77412 3.2809 2.53489 1.73505C2.10043 2.4933 1.87208 3.3589 1.87397 4.24033C1.8748 5.06469 2.07419 5.87584 2.45411 6.60047C2.83403 7.32511 3.38252 7.94039 4.04999 8.39071C3.27393 8.36479 2.51463 8.15045 1.83341 7.765V7.82671C1.83341 10.2431 3.52149 12.2585 5.75836 12.7176C5.33796 12.833 4.90487 12.8914 4.46992 12.8916C4.15378 12.8916 3.84718 12.8607 3.54774 12.799C3.86756 13.7961 4.47959 14.6654 5.29884 15.2862C6.11808 15.907 7.10387 16.2485 8.11929 16.2632C6.3776 17.6511 4.23946 18.4008 2.04099 18.3946C1.64491 18.3946 1.256 18.3699 0.873047 18.3254C3.11737 19.7949 5.7197 20.5731 8.37579 20.5691C17.3793 20.5691 22.3016 12.9706 22.3016 6.38155L22.2849 5.7361C23.2451 5.03717 24.0746 4.16363 24.7329 3.158Z" fill="white"/>
</svg>
